<?xml version="1.0" encoding="UTF-8"?>
<svg xmlns="http://www.w3.org/2000/svg" xmlns:xlink="http://www.w3.org/1999/xlink" width="24px" height="24px" viewBox="0 0 24 24" version="1.1">
<g id="surface1">
<path style=" stroke:none;fill-rule:nonzero;fill:rgb(40.392157%,40.392157%,40.392157%);fill-opacity:1;" d="M 22.398438 19.601562 L 17.601562 14.800781 C 18.5 13.398438 19 11.800781 19 10 C 19 5 15 1 10 1 C 5 1 1 5 1 10 C 1 15 5 19 10 19 C 11.800781 19 13.398438 18.5 14.800781 17.601562 L 19.601562 22.398438 C 20 22.800781 20.5 23 21 23 C 22.101562 23 23 22.101562 23 21 C 23 20.398438 22.800781 19.898438 22.398438 19.601562 Z M 5 10 C 5 7.199219 7.199219 5 10 5 C 12.800781 5 15 7.199219 15 10 C 15 12.800781 12.800781 15 10 15 C 7.199219 15 5 12.800781 5 10 Z M 5 10 "/>
</g>
</svg>
