<?xml version="1.0" encoding="UTF-8"?>
<svg xmlns="http://www.w3.org/2000/svg" xmlns:xlink="http://www.w3.org/1999/xlink" width="18px" height="18px" viewBox="0 0 18 18" version="1.1">
<g id="surface1">
<path style=" stroke:none;fill-rule:evenodd;fill:rgb(0%,0%,0%);fill-opacity:0.5;" d="M 4.5 7.875 C 3.878906 7.875 3.375 8.378906 3.375 9 L 3.375 13.875 C 3.375 14.496094 3.878906 15 4.5 15 L 13.5 15 C 14.121094 15 14.625 14.496094 14.625 13.875 L 14.625 9 C 14.625 8.378906 14.121094 7.875 13.5 7.875 L 13.125 7.875 L 13.125 5.625 C 13.125 3.761719 11.238281 2.25 9.375 2.25 L 8.625 2.25 C 6.761719 2.25 4.875 3.761719 4.875 5.625 L 4.875 7.875 Z M 12 7.875 L 6 7.875 L 6 5.679688 C 6 4.199219 7.34375 3.375 9 3.375 C 10.65625 3.375 12 4.199219 12 5.679688 Z M 12 7.875 "/>
</g>
</svg>
