<?xml version="1.0" encoding="UTF-8"?>
<svg xmlns="http://www.w3.org/2000/svg" xmlns:xlink="http://www.w3.org/1999/xlink" width="18px" height="18px" viewBox="0 0 18 18" version="1.1">
<g id="surface1">
<path style=" stroke:none;fill-rule:nonzero;fill:rgb(27.45098%,27.45098%,27.45098%);fill-opacity:0.7;" d="M 9.515625 9.046875 C 9.230469 9.300781 8.796875 9.300781 8.511719 9.046875 L 2.152344 3.261719 C 2.402344 3.089844 2.699219 3 3 3 L 15 3 C 15.300781 3 15.597656 3.089844 15.847656 3.261719 Z M 9.515625 9.046875 "/>
<path style=" stroke:none;fill-rule:nonzero;fill:rgb(27.45098%,27.45098%,27.45098%);fill-opacity:0.7;" d="M 16.5 4.695312 L 16.5 12.75 C 16.5 13.992188 15.492188 15 14.25 15 L 3.75 15 C 2.507812 15 1.5 13.992188 1.5 12.75 L 1.5 4.695312 L 8.011719 10.636719 C 8.285156 10.875 8.636719 11.003906 9 11.003906 C 9.367188 11 9.722656 10.867188 9.996094 10.621094 Z M 16.5 4.695312 "/>
</g>
</svg>
