<?xml version="1.0" encoding="UTF-8"?>
<svg xmlns="http://www.w3.org/2000/svg" xmlns:xlink="http://www.w3.org/1999/xlink" width="50px" height="50px" viewBox="0 0 50 50" version="1.1">
<g id="surface1">
<path style=" stroke:none;fill-rule:nonzero;fill:rgb(100%,100%,100%);fill-opacity:1;" d="M 11.328125 49.121094 C 11.328125 49.121094 10.320312 40.300781 18.988281 39.316406 C 18.988281 39.316406 22.695312 39.316406 22.695312 39.316406 C 22.695312 39.316406 22.695312 37.609375 22.695312 37.609375 C 22.695312 37.609375 25.304688 38.730469 27.945312 37.734375 C 27.945312 37.734375 28.03125 39.316406 28.03125 39.316406 C 28.03125 39.316406 32.363281 39.316406 32.363281 39.316406 C 32.363281 39.316406 39.910156 40.070312 39.453125 49.121094 C 39.453125 49.121094 11.328125 49.121094 11.328125 49.121094 Z M 11.328125 49.121094 "/>
<path style=" stroke:none;fill-rule:nonzero;fill:rgb(23.137255%,26.27451%,30.980392%);fill-opacity:1;" d="M 39.519531 49.375 C 39.519531 49.375 11.734375 49.375 11.734375 49.375 C 11.734375 49.375 11.195312 49.375 11.195312 49.375 C 11.195312 49.375 11.328125 47.074219 11.328125 47.074219 C 11.59375 42.589844 15.128906 39.164062 19.171875 39.164062 C 19.171875 39.164062 22.25 39.164062 22.25 39.164062 C 22.25 39.164062 22.25 39.625 22.25 39.625 C 22.25 39.625 19.417969 39.625 19.417969 39.625 C 15.519531 39.625 12.113281 42.917969 11.859375 47.238281 C 11.859375 47.238281 11.765625 48.832031 11.765625 48.832031 C 11.765625 48.832031 39.445312 48.832031 39.445312 48.832031 C 39.445312 48.832031 39.394531 47.238281 39.394531 47.238281 C 39.140625 42.917969 35.734375 39.625 31.835938 39.625 C 31.835938 39.625 28.042969 39.625 28.042969 39.625 C 28.042969 39.625 28.042969 39.164062 28.042969 39.164062 C 28.042969 39.164062 32.054688 39.164062 32.054688 39.164062 C 36.101562 39.164062 39.636719 42.589844 39.898438 47.074219 C 39.898438 47.074219 40.035156 49.375 40.035156 49.375 C 40.035156 49.375 39.519531 49.375 39.519531 49.375 Z M 39.519531 49.375 "/>
<path style=" stroke:none;fill-rule:nonzero;fill:rgb(23.137255%,26.27451%,30.980392%);fill-opacity:1;" d="M 25.167969 44.332031 C 22.9375 44.332031 21.125 42.523438 21.125 40.289062 C 21.125 39.898438 21.183594 39.523438 21.285156 39.164062 C 21.285156 39.164062 21.292969 39.164062 21.292969 39.164062 C 21.292969 39.164062 21.722656 39.164062 21.722656 39.164062 C 21.722656 39.164062 22.460938 39.164062 22.460938 39.164062 C 22.460938 39.164062 22.460938 39.625 22.460938 39.625 C 22.460938 39.625 21.605469 39.625 21.605469 39.625 C 21.566406 39.839844 21.542969 40.0625 21.542969 40.289062 C 21.542969 42.292969 23.164062 43.914062 25.167969 43.914062 C 27.171875 43.914062 28.792969 42.292969 28.792969 40.289062 C 28.792969 40.0625 28.769531 39.839844 28.730469 39.625 C 28.730469 39.625 27.875 39.625 27.875 39.625 C 27.875 39.625 27.875 39.164062 27.875 39.164062 C 27.875 39.164062 28.613281 39.164062 28.613281 39.164062 C 28.613281 39.164062 29.042969 39.164062 29.042969 39.164062 C 29.042969 39.164062 29.050781 39.164062 29.050781 39.164062 C 29.152344 39.523438 29.210938 39.898438 29.210938 40.289062 C 29.210938 42.523438 27.398438 44.332031 25.167969 44.332031 Z M 25.167969 44.332031 "/>
<path style=" stroke:none;fill-rule:nonzero;fill:rgb(23.137255%,26.27451%,30.980392%);fill-opacity:1;" d="M 22.792969 37.515625 C 22.792969 37.515625 22.792969 40.085938 22.792969 40.085938 C 22.792969 41.417969 23.875 42.5 25.210938 42.5 C 26.542969 42.5 27.625 41.417969 27.625 40.085938 C 27.625 40.085938 27.625 37.566406 27.625 37.566406 C 27.765625 37.523438 27.90625 37.476562 28.042969 37.429688 C 28.042969 37.429688 28.042969 40.101562 28.042969 40.101562 C 28.042969 41.679688 26.765625 42.957031 25.1875 42.957031 C 23.613281 42.957031 22.335938 41.679688 22.335938 40.101562 C 22.335938 40.101562 22.335938 37.347656 22.335938 37.347656 C 22.484375 37.410156 22.636719 37.464844 22.792969 37.515625 Z M 22.792969 37.515625 "/>
<path style=" stroke:none;fill-rule:nonzero;fill:rgb(100%,100%,100%);fill-opacity:1;" d="M 25.3125 11.375 C 30.496094 11.375 34.589844 16.21875 34.457031 22.039062 C 34.457031 22.039062 34.3125 28.222656 34.3125 28.222656 C 34.1875 33.707031 30.160156 38.039062 25.3125 38.039062 C 20.46875 38.039062 16.4375 33.707031 16.3125 28.222656 C 16.3125 28.222656 16.171875 22.039062 16.171875 22.039062 C 16.039062 16.21875 20.128906 11.375 25.3125 11.375 Z M 25.3125 11.375 "/>
<path style=" stroke:none;fill-rule:evenodd;fill:rgb(23.137255%,26.27451%,30.980392%);fill-opacity:1;" d="M 34.871094 21.847656 C 34.871094 21.847656 34.722656 28.28125 34.722656 28.28125 C 34.59375 33.988281 30.371094 38.5 25.292969 38.5 C 20.214844 38.5 15.992188 33.988281 15.863281 28.28125 C 15.863281 28.28125 15.714844 21.847656 15.714844 21.847656 C 15.574219 15.789062 19.863281 10.75 25.292969 10.75 C 30.722656 10.75 35.011719 15.789062 34.871094 21.847656 Z M 25.273438 11.414062 C 20.160156 11.414062 16.125 16.222656 16.253906 21.996094 C 16.253906 21.996094 16.394531 28.132812 16.394531 28.132812 C 16.519531 33.574219 20.492188 37.875 25.273438 37.875 C 30.054688 37.875 34.027344 33.574219 34.148438 28.132812 C 34.148438 28.132812 34.289062 21.996094 34.289062 21.996094 C 34.421875 16.222656 30.386719 11.414062 25.273438 11.414062 Z M 25.273438 11.414062 "/>
<path style=" stroke:none;fill-rule:nonzero;fill:rgb(23.137255%,26.27451%,30.980392%);fill-opacity:1;" d="M 24.292969 34.75 C 24.292969 34.75 26.292969 34.75 26.292969 34.75 C 26.386719 34.75 26.460938 34.824219 26.460938 34.914062 C 26.460938 35.007812 26.386719 35.082031 26.292969 35.082031 C 26.292969 35.082031 24.292969 35.082031 24.292969 35.082031 C 24.199219 35.082031 24.125 35.007812 24.125 34.914062 C 24.125 34.824219 24.199219 34.75 24.292969 34.75 Z M 24.292969 34.75 "/>
<path style=" stroke:none;fill-rule:nonzero;fill:rgb(23.137255%,26.27451%,30.980392%);fill-opacity:1;" d="M 22.542969 32.753906 C 22.542969 32.753906 22.773438 32.429688 22.773438 32.429688 C 23.519531 32.855469 24.40625 33.105469 25.359375 33.105469 C 26.320312 33.105469 27.214844 32.851562 27.964844 32.414062 C 27.964844 32.414062 28.210938 32.75 28.210938 32.75 C 27.390625 33.222656 26.417969 33.5 25.375 33.5 C 24.332031 33.5 23.359375 33.226562 22.542969 32.753906 Z M 22.542969 32.753906 "/>
<path style=" stroke:none;fill-rule:nonzero;fill:rgb(100%,100%,100%);fill-opacity:1;" d="M 15.703125 22.785156 C 15.703125 22.785156 15.601562 22.703125 15.410156 22.644531 C 15.316406 22.613281 15.195312 22.589844 15.0625 22.582031 C 15.027344 22.582031 14.992188 22.582031 14.957031 22.582031 C 14.921875 22.582031 14.886719 22.585938 14.847656 22.589844 C 14.773438 22.597656 14.699219 22.613281 14.621094 22.632812 C 14.3125 22.722656 14 22.9375 13.816406 23.378906 C 13.722656 23.601562 13.660156 23.882812 13.644531 24.230469 C 13.640625 24.316406 13.640625 24.410156 13.640625 24.507812 C 13.644531 24.601562 13.648438 24.703125 13.65625 24.808594 C 13.671875 25.019531 13.699219 25.25 13.742188 25.5 C 13.742188 25.5 13.703125 26.261719 13.976562 27.132812 C 14.230469 27.984375 14.84375 29.03125 15.972656 29.332031 C 15.84375 27.167969 15.839844 24.960938 15.703125 22.785156 Z M 15.703125 22.785156 "/>
<path style=" stroke:none;fill-rule:nonzero;fill:rgb(23.137255%,26.27451%,30.980392%);fill-opacity:1;" d="M 15.832031 22.871094 C 15.832031 22.871094 13.863281 22.261719 13.933594 24.285156 C 13.933594 24.285156 14.226562 27.222656 14.351562 27.496094 C 14.351562 27.496094 15.125 29.203125 16.402344 29.28125 C 17.652344 29.355469 16.402344 29.28125 16.402344 29.28125 C 16.402344 29.28125 16.417969 29.832031 16.417969 29.832031 C 16.417969 29.832031 14.175781 29.542969 13.742188 26.957031 C 13.742188 26.957031 13.398438 24.609375 13.398438 24.609375 C 13.398438 24.609375 13.132812 21.496094 15.710938 22.289062 C 18.222656 23.058594 15.710938 22.289062 15.710938 22.289062 C 15.710938 22.289062 15.832031 22.871094 15.832031 22.871094 "/>
<path style=" stroke:none;fill-rule:nonzero;fill:rgb(23.137255%,26.27451%,30.980392%);fill-opacity:1;" d="M 15.183594 26.953125 C 15.183594 26.953125 15.070312 27.035156 14.976562 27.035156 C 14.882812 27.035156 14.773438 26.953125 14.773438 26.953125 C 14.773438 26.953125 14.570312 24.902344 14.570312 24.902344 C 14.570312 24.902344 14.851562 23.894531 16.042969 24.425781 C 16.042969 24.425781 16.070312 25.011719 16.070312 25.011719 C 16.070312 25.011719 15.023438 24.644531 15.046875 25.105469 C 15.066406 25.546875 15.183594 26.953125 15.183594 26.953125 Z M 15.183594 26.953125 "/>
<path style=" stroke:none;fill-rule:nonzero;fill:rgb(100%,100%,100%);fill-opacity:1;" d="M 34.84375 22.789062 C 34.847656 22.789062 34.949219 22.707031 35.140625 22.648438 C 35.234375 22.617188 35.355469 22.59375 35.492188 22.585938 C 35.523438 22.585938 35.558594 22.585938 35.59375 22.585938 C 35.628906 22.589844 35.667969 22.589844 35.703125 22.59375 C 35.777344 22.601562 35.855469 22.617188 35.933594 22.636719 C 36.242188 22.726562 36.558594 22.941406 36.742188 23.386719 C 36.835938 23.605469 36.898438 23.886719 36.914062 24.234375 C 36.917969 24.320312 36.917969 24.414062 36.917969 24.511719 C 36.914062 24.605469 36.910156 24.707031 36.902344 24.8125 C 36.886719 25.023438 36.855469 25.253906 36.8125 25.503906 C 36.816406 25.503906 36.855469 26.261719 36.582031 27.132812 C 36.324219 27.988281 35.710938 29.035156 34.574219 29.332031 C 34.703125 27.167969 34.707031 24.964844 34.84375 22.789062 Z M 34.84375 22.789062 "/>
<path style=" stroke:none;fill-rule:nonzero;fill:rgb(23.137255%,26.27451%,30.980392%);fill-opacity:1;" d="M 34.714844 22.875 C 34.714844 22.875 36.695312 22.265625 36.625 24.289062 C 36.625 24.289062 36.328125 27.226562 36.203125 27.496094 C 36.203125 27.496094 35.425781 29.207031 34.140625 29.28125 C 32.886719 29.355469 34.140625 29.28125 34.140625 29.28125 C 34.140625 29.28125 34.125 29.832031 34.125 29.832031 C 34.125 29.832031 36.378906 29.542969 36.816406 26.960938 C 36.816406 26.960938 37.160156 24.609375 37.160156 24.609375 C 37.160156 24.609375 37.425781 21.503906 34.839844 22.292969 C 32.316406 23.0625 34.839844 22.292969 34.839844 22.292969 C 34.839844 22.292969 34.714844 22.875 34.714844 22.875 "/>
<path style=" stroke:none;fill-rule:nonzero;fill:rgb(23.137255%,26.27451%,30.980392%);fill-opacity:1;" d="M 35.367188 26.953125 C 35.367188 26.953125 35.480469 27.039062 35.574219 27.039062 C 35.667969 27.039062 35.777344 26.953125 35.777344 26.953125 C 35.777344 26.953125 35.984375 24.90625 35.984375 24.90625 C 35.984375 24.90625 35.703125 23.898438 34.503906 24.429688 C 34.503906 24.429688 34.476562 25.015625 34.476562 25.015625 C 34.476562 25.015625 35.527344 24.648438 35.503906 25.109375 C 35.484375 25.550781 35.367188 26.953125 35.367188 26.953125 Z M 35.367188 26.953125 "/>
<path style=" stroke:none;fill-rule:evenodd;fill:rgb(23.137255%,26.27451%,30.980392%);fill-opacity:1;" d="M 26.0625 26.789062 C 26.113281 26.789062 26.160156 26.789062 26.210938 26.789062 C 26.511719 27.199219 26.632812 27.828125 26.792969 28.375 C 26.84375 28.542969 26.792969 28.835938 26.75 28.957031 C 26.59375 29.394531 26.097656 29.386719 25.6875 29.582031 C 25.578125 29.632812 25.496094 29.726562 25.355469 29.75 C 25.261719 29.667969 25.152344 29.652344 25.105469 29.519531 C 24.992188 29.363281 25.136719 29.269531 25.25 29.207031 C 25.457031 29.097656 26.09375 28.988281 26.167969 28.789062 C 26.261719 28.683594 26.199219 28.363281 26.167969 28.25 C 26.085938 27.960938 26.046875 27.71875 25.9375 27.457031 C 25.867188 27.285156 25.738281 27.101562 25.8125 26.894531 C 25.875 26.867188 26.011719 26.835938 26.0625 26.789062 Z M 26.0625 26.789062 "/>
<path style=" stroke:none;fill-rule:nonzero;fill:rgb(23.137255%,26.27451%,30.980392%);fill-opacity:1;" d="M 20 23.847656 C 20 23.847656 21.5 23.847656 21.5 23.847656 C 21.707031 23.847656 21.875 24.050781 21.875 24.296875 C 21.875 24.546875 21.707031 24.75 21.5 24.75 C 21.5 24.75 20 24.75 20 24.75 C 19.792969 24.75 19.625 24.546875 19.625 24.296875 C 19.625 24.050781 19.792969 23.847656 20 23.847656 Z M 20 23.847656 "/>
<path style=" stroke:none;fill-rule:nonzero;fill:rgb(23.137255%,26.27451%,30.980392%);fill-opacity:1;" d="M 29.167969 23.75 C 29.167969 23.75 30.667969 23.75 30.667969 23.75 C 30.875 23.75 31.042969 23.949219 31.042969 24.199219 C 31.042969 24.445312 30.875 24.648438 30.667969 24.648438 C 30.667969 24.648438 29.167969 24.648438 29.167969 24.648438 C 28.960938 24.648438 28.792969 24.445312 28.792969 24.199219 C 28.792969 23.949219 28.960938 23.75 29.167969 23.75 Z M 29.167969 23.75 "/>
<path style=" stroke:none;fill-rule:nonzero;fill:rgb(92.941176%,94.509804%,94.509804%);fill-opacity:1;" d="M 30.335938 26.332031 C 30.910156 26.332031 31.375 26.796875 31.375 27.375 C 31.375 27.949219 30.910156 28.414062 30.335938 28.414062 C 29.757812 28.414062 29.292969 27.949219 29.292969 27.375 C 29.292969 26.796875 29.757812 26.332031 30.335938 26.332031 Z M 30.335938 26.332031 "/>
<path style=" stroke:none;fill-rule:nonzero;fill:rgb(92.941176%,94.509804%,94.509804%);fill-opacity:1;" d="M 20.25 26.332031 C 20.828125 26.332031 21.292969 26.796875 21.292969 27.375 C 21.292969 27.949219 20.828125 28.414062 20.25 28.414062 C 19.675781 28.414062 19.210938 27.949219 19.210938 27.375 C 19.210938 26.796875 19.675781 26.332031 20.25 26.332031 Z M 20.25 26.332031 "/>
<path style=" stroke:none;fill-rule:evenodd;fill:rgb(23.137255%,26.27451%,30.980392%);fill-opacity:1;" d="M 33.625 22.5 C 33.625 22.5 33.625 25.582031 33.625 25.582031 C 33.625 26.335938 32.890625 27.511719 31.695312 27.578125 C 31.519531 27.570312 27.960938 27.582031 27.960938 27.582031 C 26.359375 27.582031 26.042969 25.664062 26.042969 25.664062 C 26.042969 25.664062 26.042969 23.582031 26.042969 23.582031 C 26.042969 23.582031 24.542969 23.582031 24.542969 23.582031 C 24.542969 23.582031 24.542969 25.664062 24.542969 25.664062 C 24.542969 25.664062 24.226562 27.582031 22.625 27.582031 C 22.625 27.582031 19.066406 27.570312 18.890625 27.578125 C 17.695312 27.511719 16.960938 26.335938 16.960938 25.582031 C 16.960938 25.582031 16.960938 22.5 16.960938 22.5 C 16.960938 22.5 15.625 22.5 15.625 22.5 C 15.625 22.5 15.625 21.664062 15.625 21.664062 C 15.625 21.664062 23.375 21.664062 23.375 21.664062 C 23.375 21.664062 24.542969 21.855469 24.542969 22.664062 C 24.542969 22.664062 26.042969 22.664062 26.042969 22.664062 C 26.042969 21.855469 27.210938 21.664062 27.210938 21.664062 C 27.210938 21.664062 34.960938 21.664062 34.960938 21.664062 C 34.960938 21.664062 34.960938 22.5 34.960938 22.5 C 34.960938 22.5 33.625 22.5 33.625 22.5 Z M 23.710938 22.914062 C 23.710938 22.617188 23.375 22.582031 23.375 22.582031 C 23.375 22.582031 17.792969 22.582031 17.792969 22.582031 C 17.792969 22.582031 17.792969 25.5 17.792969 25.5 C 17.792969 26.40625 19.042969 26.75 19.042969 26.75 C 19.042969 26.75 22.460938 26.75 22.460938 26.75 C 23.636719 26.75 23.710938 25.5 23.710938 25.5 C 23.710938 25.5 23.710938 23.210938 23.710938 22.914062 Z M 32.792969 22.582031 C 32.792969 22.582031 27.210938 22.582031 27.210938 22.582031 C 27.210938 22.582031 26.875 22.617188 26.875 22.914062 C 26.875 23.210938 26.875 25.5 26.875 25.5 C 26.875 25.5 26.949219 26.75 28.125 26.75 C 28.125 26.75 31.542969 26.75 31.542969 26.75 C 31.542969 26.75 32.792969 26.40625 32.792969 25.5 C 32.792969 25.5 32.792969 22.582031 32.792969 22.582031 Z M 31.625 27.582031 C 31.648438 27.582031 31.671875 27.578125 31.695312 27.578125 C 31.710938 27.578125 31.695312 27.582031 31.625 27.582031 Z M 18.890625 27.578125 C 18.914062 27.578125 18.9375 27.582031 18.960938 27.582031 C 18.890625 27.582031 18.875 27.578125 18.890625 27.578125 Z M 18.890625 27.578125 "/>
<path style=" stroke:none;fill-rule:nonzero;fill:rgb(75.686275%,74.901961%,74.117647%);fill-opacity:1;" d="M 16.226562 22.398438 C 16.226562 22.398438 15.855469 18.429688 18.292969 16.332031 C 18.292969 16.332031 24.089844 22.027344 31.960938 16.332031 C 31.960938 16.332031 34.789062 19.160156 34.542969 22.25 C 34.542969 22.25 39.3125 16.777344 35.625 15.75 C 35.625 15.75 34.71875 16.011719 34.375 14.664062 C 34.035156 13.316406 33.398438 8.964844 24.792969 8.832031 C 16.1875 8.699219 16.792969 14 16.792969 14 C 16.820312 14.015625 12.011719 16.351562 16.226562 22.398438 Z M 16.226562 22.398438 "/>
<path style=" stroke:none;fill-rule:evenodd;fill:rgb(23.137255%,26.27451%,30.980392%);fill-opacity:1;" d="M 34.585938 22.707031 C 34.484375 19.28125 31.960938 16.707031 31.960938 16.707031 C 24.089844 22.160156 18.335938 16.707031 18.335938 16.707031 C 16.492188 18.117188 16.25 22.664062 16.25 22.664062 C 11.496094 16.597656 16.527344 13.933594 16.5 13.914062 C 16.5 13.914062 16.019531 8.394531 24.625 8.539062 C 33.589844 8.695312 34.242188 13.011719 34.625 14.539062 C 34.929688 15.761719 36 15.539062 36 15.539062 C 39.832031 17.027344 34.585938 22.707031 34.585938 22.707031 Z M 35.5 16 C 35.5 16 34.480469 16.265625 34.085938 14.664062 C 33.75 13.316406 33.398438 9.253906 24.792969 9.125 C 16.1875 8.992188 17.042969 14.207031 17.042969 14.207031 C 17.070312 14.222656 12.71875 16.292969 15.917969 21.414062 C 15.917969 21.414062 15.8125 18.054688 18.25 15.957031 C 18.25 15.957031 23.859375 21.878906 32.042969 16 C 32.042969 16 34.636719 18.46875 34.835938 21.5 C 34.835938 21.5 38.660156 16.691406 35.5 16 Z M 35.5 16 "/>
</g>
</svg>
